<?xml version="1.0" standalone="no"?>
<!DOCTYPE svg PUBLIC "-//W3C//DTD SVG 20010904//EN"
 "http://www.w3.org/TR/2001/REC-SVG-20010904/DTD/svg10.dtd">
<svg version="1.0" xmlns="http://www.w3.org/2000/svg"
 width="500.000000pt" height="500.000000pt" viewBox="0 0 500.000000 500.000000"
 preserveAspectRatio="xMidYMid meet">
<metadata>
Created by potrace 1.14, written by Peter Selinger 2001-2017
</metadata>
<g transform="translate(0.000000,500.000000) scale(0.100000,-0.100000)"
fill="#000000" stroke="none">
<path d="M2290 4284 c-585 -79 -1058 -402 -1346 -919 -21 -38 -37 -73 -36 -77
1 -5 -3 -8 -10 -8 -6 0 -8 -3 -5 -6 3 -4 0 -16 -8 -28 -8 -11 -15 -28 -15 -38
0 -9 -7 -24 -16 -32 -8 -9 -12 -16 -7 -16 4 0 1 -5 -7 -10 -10 -6 -11 -10 -3
-10 9 0 7 -10 -5 -32 -17 -31 -22 -52 -26 -105 0 -13 -4 -23 -8 -23 -5 0 -8
-6 -8 -14 0 -8 -6 -17 -12 -19 -10 -4 -10 -6 0 -6 8 -1 10 -6 5 -13 -10 -17
-14 -36 -16 -75 -1 -18 -4 -33 -7 -33 -5 0 -7 -14 -14 -97 -1 -12 -5 -25 -8
-28 -4 -4 -4 -13 -2 -20 3 -7 -2 -15 -10 -18 -10 -4 -16 -1 -17 8 -1 8 -2 18
-4 23 -14 51 -18 62 -26 62 -5 0 -9 7 -9 16 0 8 -4 13 -9 10 -5 -3 -12 1 -15
10 -3 8 -10 12 -16 9 -5 -3 -10 -2 -10 3 0 14 -58 20 -71 8 -9 -8 -10 -8 -5 2
9 15 -10 16 -19 1 -4 -5 -11 -9 -17 -7 -12 4 -68 -45 -68 -60 0 -6 -5 -12 -11
-14 -13 -4 -20 -78 -8 -78 4 0 6 -9 4 -20 -2 -11 1 -22 6 -25 5 -4 6 -12 3
-18 -4 -7 -4 -9 1 -5 9 8 35 -15 35 -32 0 -6 4 -9 9 -5 5 3 12 1 16 -5 3 -5
15 -10 26 -10 13 0 18 -4 13 -12 -5 -7 -3 -8 7 -2 21 13 59 16 59 4 0 -5 9
-10 19 -10 11 0 21 -5 23 -10 2 -6 13 -12 26 -13 12 0 22 -5 22 -10 0 -4 5 -5
10 -2 6 3 10 1 10 -4 0 -6 3 -10 8 -10 30 5 35 -8 17 -53 -4 -10 -3 -18 3 -18
6 0 9 -12 8 -27 -2 -16 0 -36 5 -45 6 -11 5 -18 -4 -21 -9 -4 -9 -6 1 -6 7 -1
10 -6 7 -11 -4 -6 -1 -17 5 -25 10 -12 10 -15 -1 -15 -9 0 -10 -3 -4 -8 6 -4
11 -11 12 -17 10 -65 19 -114 23 -125 1 -3 2 -8 1 -12 0 -5 4 -8 9 -8 6 0 10
-6 8 -12 -7 -39 80 -253 162 -398 50 -90 51 -94 41 -136 -16 -61 -14 -94 7
-134 25 -46 79 -72 148 -72 54 0 56 -2 123 -64 38 -36 81 -74 96 -86 24 -19
26 -25 20 -65 -3 -24 -15 -68 -25 -98 -19 -56 -17 -64 23 -78 12 -5 28 1 44
13 33 25 63 25 114 -1 59 -30 124 -93 186 -181 30 -42 64 -80 76 -84 12 -3 45
-21 73 -40 68 -44 138 -69 202 -73 89 -4 140 20 251 122 29 26 59 47 68 47 8
0 49 -31 91 -69 43 -38 91 -75 107 -83 125 -62 368 -32 474 58 28 25 42 46 47
72 8 47 15 59 59 112 43 52 119 112 162 129 36 15 92 6 100 -15 7 -18 33 -17
57 1 18 14 18 16 1 80 -10 36 -16 67 -14 68 62 45 158 124 206 170 34 33 79
67 101 77 45 20 82 63 82 95 0 12 13 40 28 61 96 135 193 321 242 464 17 52
35 102 39 110 4 8 7 26 7 40 -1 14 3 28 8 31 7 6 13 37 18 107 1 6 5 12 9 12
4 0 6 14 5 30 -1 17 0 30 3 30 3 0 7 26 8 58 2 31 4 63 5 70 1 10 26 16 65 15
7 -1 10 3 7 8 -3 5 4 9 15 9 12 0 21 5 21 10 0 6 14 10 30 10 17 0 30 -5 30
-12 0 -10 3 -9 9 1 5 7 14 10 20 7 6 -4 11 -1 11 6 0 11 2 10 9 0 7 -11 9 -10
15 3 3 9 10 13 16 10 5 -3 10 -1 10 5 0 6 4 9 8 6 5 -3 16 4 25 15 9 10 14 19
10 19 -3 0 2 10 13 22 12 13 13 18 4 13 -12 -7 -13 -6 -3 6 15 19 10 89 -8
100 -11 7 -11 9 -1 9 17 0 3 14 -45 48 -32 23 -113 37 -113 21 0 -5 -3 -8 -7
-7 -40 8 -119 -87 -100 -119 3 -5 -5 -9 -18 -9 -17 0 -22 5 -20 18 2 10 1 18
-3 18 -4 0 -8 15 -8 33 -3 61 -11 124 -18 135 -4 7 -4 12 0 12 4 0 -1 9 -10
19 -11 12 -14 21 -7 26 8 4 8 12 0 26 -6 11 -8 27 -5 35 3 8 1 14 -5 14 -6 0
-7 5 -4 10 3 6 2 10 -4 10 -5 0 -8 9 -6 20 2 11 -3 26 -11 34 -9 10 -10 16 -3
18 8 3 6 10 -5 21 -10 9 -12 17 -6 17 7 0 5 6 -4 16 -9 8 -16 23 -16 32 0 10
-8 28 -17 41 -12 18 -13 22 -2 16 12 -7 12 -6 -1 9 -8 10 -15 25 -17 34 -1 9
-7 18 -12 20 -6 2 -11 9 -11 16 0 18 -24 66 -33 66 -5 0 -5 5 -2 10 3 6 1 10
-5 10 -6 0 -9 4 -5 9 3 5 1 12 -5 16 -6 4 -7 11 -4 17 4 6 3 8 -2 5 -6 -3 -16
3 -23 15 -10 16 -10 19 1 13 7 -3 2 3 -11 14 -13 12 -21 24 -17 28 3 3 -3 12
-14 20 -11 8 -20 21 -20 29 0 8 -5 14 -12 14 -6 0 -8 3 -5 6 4 4 -3 15 -15 25
-11 11 -18 19 -14 19 4 0 0 8 -10 17 -15 16 -14 18 22 31 22 7 45 15 52 16 7
1 18 8 24 14 7 7 18 12 25 12 16 0 55 21 65 35 4 6 8 6 8 2 0 -5 7 -1 16 8 9
9 23 14 30 11 8 -3 14 -1 14 5 0 6 10 9 23 8 12 -2 27 0 34 4 7 5 16 0 22 -12
8 -14 8 -21 -2 -24 -9 -4 -9 -6 0 -6 7 -1 10 -8 7 -16 -4 -8 -2 -15 3 -15 5 0
10 -7 11 -15 1 -8 3 -22 4 -30 1 -8 4 -13 6 -10 3 2 12 -4 21 -14 17 -20 86
-53 94 -45 3 3 20 7 38 9 18 3 35 8 38 13 3 5 14 11 24 15 10 4 15 11 12 17
-3 5 2 10 11 10 10 0 15 3 11 6 -3 4 1 20 9 36 12 23 12 28 2 22 -10 -6 -10
-4 1 9 9 12 10 17 2 17 -7 0 -9 5 -5 11 11 18 -26 86 -54 100 -15 8 -30 18
-34 24 -4 5 -8 7 -8 3 0 -4 -13 -3 -30 2 -20 6 -30 5 -30 -2 0 -6 -10 -3 -22
8 -14 12 -19 14 -13 4 6 -12 5 -13 -6 -2 -7 6 -24 12 -37 12 -13 0 -21 3 -19
8 3 4 -8 7 -24 8 -18 1 -26 -3 -22 -10 4 -6 0 -5 -9 2 -19 15 -188 13 -188 -2
0 -4 -7 -6 -15 -2 -8 3 -15 1 -15 -5 0 -6 -4 -8 -9 -5 -8 5 -110 -31 -121 -44
-14 -15 -50 -29 -50 -19 0 5 -5 7 -11 4 -19 -12 -67 -16 -73 -6 -4 6 -13 8
-21 4 -9 -3 -15 1 -15 11 0 9 -5 16 -11 16 -7 0 -24 12 -40 28 -42 41 -56 51
-63 45 -3 -4 -6 1 -6 11 0 9 -4 15 -9 12 -5 -3 -11 1 -15 9 -3 8 -12 15 -21
15 -8 0 -15 4 -15 9 0 5 -9 13 -20 16 -11 3 -26 12 -32 18 -35 33 -221 126
-338 170 -261 97 -574 135 -830 101z m-176 -272 c3 -5 -9 -24 -25 -43 -74 -85
-110 -185 -116 -331 l-5 -118 -30 25 c-46 39 -148 92 -213 111 -36 10 -97 17
-152 18 -51 1 -93 3 -93 6 0 10 130 110 199 154 90 58 218 119 326 155 100 34
102 34 109 23z m-457 -969 l48 -98 -3 -185 c-3 -178 -4 -186 -26 -210 -13 -14
-37 -53 -52 -87 -16 -35 -34 -63 -40 -63 -6 0 -28 7 -49 16 -120 50 -153 -5
-101 -169 21 -68 22 -77 8 -71 -10 4 -43 10 -75 12 -48 3 -67 -1 -120 -26 -34
-16 -73 -40 -87 -53 -13 -13 -28 -23 -32 -22 -5 2 -7 0 -6 -5 1 -4 -12 -28
-29 -55 l-31 -47 -8 27 c-4 16 -7 31 -6 36 1 4 -2 7 -6 7 -5 0 -9 6 -10 13 -1
6 -3 23 -4 37 -2 14 -7 28 -12 31 -5 4 -8 18 -8 33 0 14 -4 26 -9 26 -4 0 -8
8 -8 18 0 44 -5 82 -11 82 -3 0 -6 14 -5 31 1 17 -2 51 -5 75 -4 26 -2 48 4
55 8 9 8 10 -2 5 -9 -6 -11 -1 -8 18 3 16 0 26 -7 27 -9 0 -9 2 0 5 7 3 9 12
6 21 -4 11 -2 14 5 9 6 -3 15 1 20 9 4 9 18 17 29 18 12 0 21 6 20 12 -1 5 8
10 20 9 12 0 20 2 18 6 -2 3 13 15 33 25 20 11 41 26 45 33 5 7 12 10 18 7 5
-4 12 1 15 9 3 9 11 16 16 16 17 0 149 104 212 166 70 71 127 154 158 235 13
32 26 59 30 59 4 0 29 -44 55 -97z m1758 56 c-4 -5 -1 -9 5 -9 7 0 10 -6 7
-12 -2 -7 2 -21 10 -30 8 -9 16 -28 17 -42 0 -14 7 -28 14 -31 7 -3 10 -9 7
-15 -3 -5 1 -10 9 -10 9 0 16 -7 16 -15 0 -8 13 -29 30 -46 16 -18 27 -36 24
-41 -3 -4 -1 -7 4 -6 6 2 26 -14 46 -36 20 -21 36 -36 36 -33 0 3 10 -4 23
-16 42 -40 77 -67 87 -67 6 0 10 -4 10 -10 0 -5 7 -10 15 -10 8 0 15 -4 15
-10 0 -5 7 -10 15 -10 8 0 15 -3 15 -8 0 -4 13 -13 28 -20 16 -6 37 -20 48
-30 11 -9 26 -18 34 -20 8 -2 17 -8 18 -13 2 -5 8 -7 13 -3 5 3 9 0 9 -7 0 -7
3 -9 7 -6 3 4 15 -1 26 -10 10 -10 22 -18 26 -18 3 0 5 -18 5 -40 -4 -95 -9
-155 -15 -155 -3 0 -5 -11 -4 -25 2 -14 0 -25 -3 -25 -4 0 -7 -15 -6 -32 0
-18 -4 -38 -9 -45 -5 -7 -6 -17 -2 -23 3 -5 -1 -13 -10 -16 -12 -5 -13 -9 -4
-20 6 -8 7 -14 2 -14 -5 0 -10 -6 -11 -12 -1 -15 -10 -52 -12 -55 -2 -2 -3 -6
-4 -10 -13 -60 -128 -296 -170 -348 l-23 -28 -36 28 c-19 16 -45 47 -58 69
l-22 39 21 17 c11 10 40 20 62 24 86 14 121 83 83 164 -19 42 -68 103 -76 95
-3 -2 -10 5 -17 16 -6 12 -15 19 -21 16 -5 -4 -9 -2 -9 4 0 10 -38 27 -52 23
-5 -1 -8 3 -8 9 0 5 -4 7 -10 4 -5 -3 -10 -1 -10 5 0 6 -4 8 -10 5 -5 -3 -10
0 -10 7 0 9 -3 9 -10 -2 -5 -8 -10 -10 -10 -5 0 8 -63 12 -77 6 -2 -1 -5 0 -6
2 -2 1 -11 -4 -20 -11 -23 -20 -30 2 -12 44 8 20 13 40 10 44 -3 5 -1 11 5 15
6 4 8 11 5 16 -4 5 -1 9 5 9 16 0 10 98 -7 112 -18 15 -84 12 -95 -4 -6 -10
-8 -10 -9 2 0 10 -2 11 -6 2 -2 -6 -9 -10 -14 -6 -5 3 -9 0 -9 -6 0 -6 -4 -8
-10 -5 -5 3 -10 2 -10 -4 0 -6 -6 -8 -14 -5 -8 3 -12 12 -9 20 3 8 -1 14 -8
14 -7 0 -9 3 -6 7 4 3 0 15 -10 25 -9 10 -13 18 -9 18 4 0 4 6 -1 13 -14 22
-11 33 8 33 11 0 19 -4 19 -9 0 -4 4 -6 9 -2 5 3 9 29 9 58 -1 30 2 59 6 65 4
7 4 12 -1 12 -9 0 -10 57 -1 66 3 3 1 22 -4 42 -13 48 -17 132 -7 138 5 2 6
11 2 19 -3 8 -1 15 4 15 5 0 10 6 11 13 3 38 8 53 21 63 8 6 11 16 8 21 -4 6
0 14 9 17 8 3 12 10 9 16 -3 5 -1 10 4 10 6 0 11 6 11 13 0 17 21 38 32 31 4
-3 6 -10 3 -15z"/>
</g>
</svg>
